<mxfile host="app.diagrams.net" modified="2023-11-08T18:44:24.462Z" agent="Mozilla/5.0 (Windows NT 10.0; Win64; x64) AppleWebKit/537.36 (KHTML, like Gecko) Chrome/119.0.0.0 Safari/537.36 Edg/119.0.0.0" etag="wouKZxQO1gY-4hTvaNED" version="22.0.8" type="onedrive">
  <diagram name="Pagina-1" id="YqPYwW1B30gHhVFocl0A">
    <mxGraphModel dx="1158" dy="586" grid="1" gridSize="10" guides="1" tooltips="1" connect="1" arrows="1" fold="1" page="1" pageScale="1" pageWidth="827" pageHeight="1169" math="1" shadow="0">
      <root>
        <mxCell id="0" />
        <mxCell id="1" parent="0" />
        <mxCell id="2ATspQgGyuIhZO2GTvOP-6" value="&lt;b style=&quot;font-size: 35px;&quot;&gt;M&lt;/b&gt;" style="rounded=0;whiteSpace=wrap;html=1;fillColor=none;fontStyle=0;fontSize=35;" vertex="1" parent="1">
          <mxGeometry x="500" y="60" width="214" height="110" as="geometry" />
        </mxCell>
        <mxCell id="2ATspQgGyuIhZO2GTvOP-7" value="$$\Delta$$&lt;div style=&quot;text-align: left; font-size: 31px;&quot;&gt;&lt;/div&gt;" style="rounded=0;whiteSpace=wrap;html=1;fontStyle=0;fontSize=31;fillColor=none;" vertex="1" parent="1">
          <mxGeometry x="500" y="280" width="220" height="120" as="geometry" />
        </mxCell>
        <mxCell id="2ATspQgGyuIhZO2GTvOP-8" value="" style="endArrow=classic;html=1;rounded=0;entryX=1;entryY=0.5;entryDx=0;entryDy=0;exitX=1;exitY=0.5;exitDx=0;exitDy=0;" edge="1" parent="1">
          <mxGeometry width="50" height="50" relative="1" as="geometry">
            <mxPoint x="714" y="110" as="sourcePoint" />
            <mxPoint x="720" y="335" as="targetPoint" />
            <Array as="points">
              <mxPoint x="770" y="110" />
              <mxPoint x="770" y="335" />
            </Array>
          </mxGeometry>
        </mxCell>
        <mxCell id="2ATspQgGyuIhZO2GTvOP-11" value="" style="endArrow=classic;html=1;rounded=0;exitX=0;exitY=0.5;exitDx=0;exitDy=0;entryX=0;entryY=0.5;entryDx=0;entryDy=0;" edge="1" parent="1" source="2ATspQgGyuIhZO2GTvOP-7" target="2ATspQgGyuIhZO2GTvOP-6">
          <mxGeometry width="50" height="50" relative="1" as="geometry">
            <mxPoint x="540" y="240" as="sourcePoint" />
            <mxPoint x="590" y="190" as="targetPoint" />
            <Array as="points">
              <mxPoint x="440" y="340" />
              <mxPoint x="440" y="115" />
            </Array>
          </mxGeometry>
        </mxCell>
      </root>
    </mxGraphModel>
  </diagram>
</mxfile>
